<!DOCTYPE svg PUBLIC "-//W3C//DTD SVG 1.1//EN" "http://www.w3.org/Graphics/SVG/1.1/DTD/svg11.dtd">
<!-- Uploaded to: SVG Repo, www.svgrepo.com, Transformed by: SVG Repo Mixer Tools -->
<svg width="256px" height="256px" viewBox="0 -2 19.001 19.001" xmlns="http://www.w3.org/2000/svg" fill="#444" stroke="#444" stroke-width="0.00019001000000000003" transform="matrix(1, 0, 0, 1, 0, 0)rotate(0)">
<g id="SVGRepo_bgCarrier" stroke-width="0"/>
<g id="SVGRepo_tracerCarrier" stroke-linecap="round" stroke-linejoin="round" stroke="#CCCCCC" stroke-width="0.19001"/>
<g id="SVGRepo_iconCarrier"> <path id="Path_14" data-name="Path 14" d="M473.974,826v-1h12v1Zm0,2h11v1h-11Zm9.987,4.02h-9.992a2.664,2.664,0,0,1-2.71-2.66l-.8-7.36h-3.484v-1h4.406l.869,8.36a1.874,1.874,0,0,0,1.72,1.633h9.992v1.027Zm-10.487.98a1.5,1.5,0,1,1-1.5,1.5A1.5,1.5,0,0,1,473.474,833Zm-.531,1.969h1V834h-1ZM481.474,833a1.5,1.5,0,1,1-1.5,1.5A1.5,1.5,0,0,1,481.474,833Zm-.531,1.969h1V834h-1Z" transform="translate(-466.973 -821)" fill="#05453e"/> </g>
</svg>